<svg width="54" height="54" viewBox="0 0 54 54" fill="none" xmlns="http://www.w3.org/2000/svg">
    <rect x="3" y="3" width="48" height="48" rx="16" fill="white"/>
    <path d="M22.25 28.0001C22.4489 28.0001 22.6397 27.9211 22.7803 27.7804C22.921 27.6397 23 27.449 23 27.2501C23 27.0512 22.921 26.8604 22.7803 26.7197C22.6397 26.5791 22.4489 26.5001 22.25 26.5001C22.0511 26.5001 21.8603 26.5791 21.7197 26.7197C21.579 26.8604 21.5 27.0512 21.5 27.2501C21.5 27.449 21.579 27.6397 21.7197 27.7804C21.8603 27.9211 22.0511 28.0001 22.25 28.0001Z" fill="#FBA564"/>
    <path d="M21.5 16H30.5C31.6935 16 32.8381 16.4741 33.682 17.318C34.5259 18.1619 35 19.3065 35 20.5V29.5C35.0016 30.2183 34.8304 30.9264 34.5009 31.5647C34.1715 32.203 33.6934 32.7527 33.107 33.1675C32.3464 33.7107 31.4347 34.0019 30.5 34H21.5C20.7817 34.0016 20.0736 33.8304 19.4353 33.5009C18.797 33.1715 18.2473 32.6934 17.8325 32.107C17.2898 31.3461 16.9987 30.4346 17 29.5V20.5C17 19.3065 17.4741 18.1619 18.318 17.318C19.1619 16.4741 20.3065 16 21.5 16ZM20.75 20.5C20.5511 20.5 20.3603 20.579 20.2197 20.7197C20.079 20.8603 20 21.0511 20 21.25C20 21.4489 20.079 21.6397 20.2197 21.7803C20.3603 21.921 20.5511 22 20.75 22H31.25C31.4489 22 31.6397 21.921 31.7803 21.7803C31.921 21.6397 32 21.4489 32 21.25C32 21.0511 31.921 20.8603 31.7803 20.7197C31.6397 20.579 31.4489 20.5 31.25 20.5H20.75ZM22.25 29.5C22.8467 29.5 23.419 29.2629 23.841 28.841C24.263 28.419 24.5 27.8467 24.5 27.25C24.5 26.6533 24.263 26.081 23.841 25.659C23.419 25.2371 22.8467 25 22.25 25C21.6533 25 21.081 25.2371 20.659 25.659C20.2371 26.081 20 26.6533 20 27.25C20 27.8467 20.2371 28.419 20.659 28.841C21.081 29.2629 21.6533 29.5 22.25 29.5ZM26.75 26.5C26.5511 26.5 26.3603 26.579 26.2197 26.7197C26.079 26.8603 26 27.0511 26 27.25C26 27.4489 26.079 27.6397 26.2197 27.7803C26.3603 27.921 26.5511 28 26.75 28H31.25C31.4489 28 31.6397 27.921 31.7803 27.7803C31.921 27.6397 32 27.4489 32 27.25C32 27.0511 31.921 26.8603 31.7803 26.7197C31.6397 26.579 31.4489 26.5 31.25 26.5H26.75Z" fill="#FBA564"/>
    <path d="M21.146 35.5C21.971 36.421 23.168 37 24.5 37H31.25C33.0402 37 34.7571 36.2888 36.023 35.0229C37.2888 33.7571 38 32.0402 38 30.25V23.5C38 22.168 37.421 20.9695 36.5 20.146V30.25C36.5 31.6423 35.9469 32.9777 34.9623 33.9623C33.9777 34.9468 32.6424 35.5 31.25 35.5H21.146Z" fill="#FBA564"/>
    <rect x="1.5" y="1.5" width="51" height="51" rx="17.5" stroke="#FBA564" stroke-opacity="0.2" stroke-width="3"/>
</svg>
