<svg width="54" height="54" viewBox="0 0 54 54" fill="none" xmlns="http://www.w3.org/2000/svg">
    <rect x="3" y="3" width="48" height="48" rx="16" fill="white"/>
    <path d="M30.11 17C29.6697 17 29.2475 17.1749 28.9362 17.4862C28.6249 17.7975 28.45 18.2197 28.45 18.66V21.98C28.45 22.4203 28.6249 22.8425 28.9362 23.1538C29.2475 23.4651 29.6697 23.64 30.11 23.64V26.13L33.098 23.64H36.75C37.1903 23.64 37.6125 23.4651 37.9238 23.1538C38.2351 22.8425 38.41 22.4203 38.41 21.98V18.66C38.41 18.2197 38.2351 17.7975 37.9238 17.4862C37.6125 17.1749 37.1903 17 36.75 17H30.11ZM22.64 21.15C21.7595 21.15 20.915 21.4998 20.2924 22.1224C19.6698 22.745 19.32 23.5895 19.32 24.47C19.32 25.3505 19.6698 26.195 20.2924 26.8176C20.915 27.4402 21.7595 27.79 22.64 27.79C23.5205 27.79 24.365 27.4402 24.9876 26.8176C25.6102 26.195 25.96 25.3505 25.96 24.47C25.96 23.5895 25.6102 22.745 24.9876 22.1224C24.365 21.4998 23.5205 21.15 22.64 21.15ZM26.79 29.45H18.49C17.8296 29.45 17.1963 29.7123 16.7293 30.1793C16.2623 30.6463 16 31.2796 16 31.94C16 33.7926 16.7619 35.2766 18.0119 36.2809C19.242 37.2686 20.892 37.75 22.64 37.75C24.388 37.75 26.038 37.2686 27.2681 36.2809C28.5164 35.2766 29.28 33.7926 29.28 31.94C29.28 31.2796 29.0177 30.6463 28.5507 30.1793C28.0837 29.7123 27.4504 29.45 26.79 29.45Z" fill="#B498F4"/>
    <rect x="1.5" y="1.5" width="51" height="51" rx="17.5" stroke="#425FF8" stroke-opacity="0.2" stroke-width="3"/>
</svg>
