<svg width="48" height="48" viewBox="0 0 48 48" fill="none" xmlns="http://www.w3.org/2000/svg">
    <rect width="48" height="48" rx="16" fill="#B498F4"/>
    <path fill-rule="evenodd" clip-rule="evenodd" d="M19.1999 14.4C18.5372 14.4 17.9999 14.9373 17.9999 15.6V16.8H16.7999C15.4744 16.8 14.3999 17.8745 14.3999 19.2V31.2001C14.3999 32.5255 15.4744 33.6001 16.7999 33.6001H31.1999C32.5254 33.6001 33.5999 32.5255 33.5999 31.2001V19.2C33.5999 17.8745 32.5254 16.8 31.1999 16.8H29.9999V15.6C29.9999 14.9373 29.4627 14.4 28.7999 14.4C28.1372 14.4 27.5999 14.9373 27.5999 15.6V16.8H20.3999V15.6C20.3999 14.9373 19.8627 14.4 19.1999 14.4ZM19.1999 20.4C18.5372 20.4 17.9999 20.9373 17.9999 21.6C17.9999 22.2628 18.5372 22.8 19.1999 22.8H28.7999C29.4627 22.8 29.9999 22.2628 29.9999 21.6C29.9999 20.9373 29.4627 20.4 28.7999 20.4H19.1999Z" fill="white"/>
</svg>
