<svg width="48" height="48" viewBox="0 0 48 48" fill="none" xmlns="http://www.w3.org/2000/svg">
    <rect width="48" height="48" rx="16" fill="#52D7A6"/>
    <path d="M23.9999 16.2C23.9999 15.2059 24.8058 14.4 25.7999 14.4C26.794 14.4 27.5999 15.2059 27.5999 16.2V16.8C27.5999 17.4628 28.1372 18 28.7999 18H32.3999C33.0626 18 33.5999 18.5373 33.5999 19.2V22.8C33.5999 23.4628 33.0626 24 32.3999 24H31.7999C30.8058 24 29.9999 24.8059 29.9999 25.8C29.9999 26.7941 30.8058 27.6 31.7999 27.6H32.3999C33.0626 27.6 33.5999 28.1373 33.5999 28.8V32.4C33.5999 33.0628 33.0626 33.6 32.3999 33.6H28.7999C28.1372 33.6 27.5999 33.0628 27.5999 32.4V31.8C27.5999 30.8059 26.794 30 25.7999 30C24.8058 30 23.9999 30.8059 23.9999 31.8V32.4C23.9999 33.0628 23.4626 33.6 22.7999 33.6H19.1999C18.5372 33.6 17.9999 33.0628 17.9999 32.4V28.8C17.9999 28.1373 17.4626 27.6 16.7999 27.6H16.1999C15.2058 27.6 14.3999 26.7941 14.3999 25.8C14.3999 24.8059 15.2058 24 16.1999 24H16.7999C17.4626 24 17.9999 23.4628 17.9999 22.8V19.2C17.9999 18.5373 18.5372 18 19.1999 18H22.7999C23.4626 18 23.9999 17.4628 23.9999 16.8V16.2Z" fill="white"/>
</svg>
