<svg width="48" height="48" viewBox="0 0 48 48" fill="none" xmlns="http://www.w3.org/2000/svg">
    <rect width="48" height="48" rx="16" fill="#B498F4"/>
    <path d="M25.1999 15.6C25.1999 14.9373 24.6626 14.4 23.9999 14.4C23.3372 14.4 22.7999 14.9373 22.7999 15.6V16.8C22.7999 17.4628 23.3372 18 23.9999 18C24.6626 18 25.1999 17.4628 25.1999 16.8V15.6Z" fill="white"/>
    <path d="M30.7881 18.9088C31.2567 18.4402 31.2567 17.6804 30.7881 17.2117C30.3195 16.7431 29.5597 16.7431 29.091 17.2117L28.2425 18.0603C27.7739 18.5289 27.7739 19.2887 28.2425 19.7573C28.7111 20.2259 29.4709 20.2259 29.9396 19.7573L30.7881 18.9088Z" fill="white"/>
    <path d="M33.5999 24C33.5999 24.6628 33.0626 25.2 32.3999 25.2H31.1999C30.5372 25.2 29.9999 24.6628 29.9999 24C29.9999 23.3373 30.5372 22.8 31.1999 22.8H32.3999C33.0626 22.8 33.5999 23.3373 33.5999 24Z" fill="white"/>
    <path d="M18.0601 19.7573C18.5288 20.226 19.2886 20.226 19.7572 19.7573C20.2258 19.2887 20.2258 18.5289 19.7572 18.0603L18.9087 17.2118C18.44 16.7431 17.6802 16.7431 17.2116 17.2118C16.743 17.6804 16.743 18.4402 17.2116 18.9088L18.0601 19.7573Z" fill="white"/>
    <path d="M17.9999 24C17.9999 24.6628 17.4626 25.2 16.7999 25.2H15.5999C14.9372 25.2 14.3999 24.6628 14.3999 24C14.3999 23.3373 14.9372 22.8 15.5999 22.8H16.7999C17.4626 22.8 17.9999 23.3373 17.9999 24Z" fill="white"/>
    <path d="M21.5999 31.2V30H26.3999V31.2C26.3999 32.5255 25.3254 33.6 23.9999 33.6C22.6744 33.6 21.5999 32.5255 21.5999 31.2Z" fill="white"/>
    <path d="M26.401 28.8C26.4185 28.3916 26.649 28.0245 26.9721 27.7694C28.0854 26.8903 28.7999 25.5286 28.7999 24C28.7999 21.3491 26.6509 19.2 23.9999 19.2C21.3489 19.2 19.1999 21.3491 19.1999 24C19.1999 25.5286 19.9144 26.8903 21.0277 27.7694C21.3508 28.0245 21.5813 28.3916 21.5988 28.8H26.401Z" fill="white"/>
</svg>
