<svg width="48" height="48" viewBox="0 0 48 48" fill="none" xmlns="http://www.w3.org/2000/svg">
    <rect width="48" height="48" rx="16" fill="#425FF8"/>
    <path d="M14.3999 24.6C14.3999 23.6059 15.2058 22.8 16.1999 22.8C17.194 22.8 17.9999 23.6059 17.9999 24.6V31.8C17.9999 32.7941 17.194 33.6 16.1999 33.6C15.2058 33.6 14.3999 32.7941 14.3999 31.8V24.6Z" fill="white"/>
    <path d="M19.1999 24.4V30.9167C19.1999 31.8258 19.7135 32.6568 20.5266 33.0634L20.5864 33.0933C21.2529 33.4265 21.9879 33.6 22.733 33.6H29.2324C30.3764 33.6 31.3614 32.7925 31.5858 31.6707L33.0258 24.4707C33.3228 22.9856 32.1869 21.6 30.6724 21.6H26.3999V16.8C26.3999 15.4745 25.3254 14.4 23.9999 14.4C23.3372 14.4 22.7999 14.9373 22.7999 15.6V16.4C22.7999 17.4386 22.463 18.4492 21.8399 19.28L20.1599 21.52C19.5368 22.3509 19.1999 23.3614 19.1999 24.4Z" fill="white"/>
</svg>
