<svg width="20" height="20" viewBox="0 0 20 20" fill="none" xmlns="http://www.w3.org/2000/svg">
    <path d="M8.58317 6.41667C8.50597 6.49294 8.44468 6.58377 8.40284 6.6839C8.36101 6.78404 8.33947 6.89148 8.33947 7C8.33947 7.10852 8.36101 7.21596 8.40284 7.3161C8.44468 7.41623 8.50597 7.50706 8.58317 7.58333L10.1665 9.16667H2.49984C2.0415 9.16667 1.6665 9.54167 1.6665 10C1.6665 10.4583 2.0415 10.8333 2.49984 10.8333H10.1665L8.58317 12.4167C8.50597 12.4929 8.44468 12.5838 8.40284 12.6839C8.36101 12.784 8.33947 12.8915 8.33947 13C8.33947 13.1085 8.36101 13.216 8.40284 13.3161C8.44468 13.4162 8.50597 13.5071 8.58317 13.5833C8.90817 13.9083 9.42484 13.9083 9.74984 13.5833L12.7415 10.5917C12.8188 10.5146 12.88 10.423 12.9219 10.3222C12.9637 10.2214 12.9852 10.1133 12.9852 10.0042C12.9852 9.89503 12.9637 9.78696 12.9219 9.68615C12.88 9.58534 12.8188 9.49376 12.7415 9.41667L9.74984 6.41667C9.67357 6.33947 9.58273 6.27817 9.4826 6.23634C9.38247 6.19451 9.27502 6.17297 9.1665 6.17297C9.05798 6.17297 8.95054 6.19451 8.85041 6.23634C8.75027 6.27817 8.65944 6.33947 8.58317 6.41667ZM16.6665 15.8333H10.8332C10.3748 15.8333 9.99984 16.2083 9.99984 16.6667C9.99984 17.125 10.3748 17.5 10.8332 17.5H16.6665C17.5832 17.5 18.3332 16.75 18.3332 15.8333V4.16667C18.3332 3.25 17.5832 2.5 16.6665 2.5H10.8332C10.3748 2.5 9.99984 2.875 9.99984 3.33333C9.99984 3.79167 10.3748 4.16667 10.8332 4.16667H16.6665V15.8333Z" fill="white"/>
</svg>
