<svg width="54" height="54" viewBox="0 0 54 54" fill="none" xmlns="http://www.w3.org/2000/svg">
    <rect x="3" y="3" width="48" height="48" rx="16" fill="white"/>
    <g clip-path="url(#clip0_62_743)">
        <path d="M27 27L18.048 23.424L18.6 36.6L16.2 36.6L16.776 22.908L15 22.2L27 17.4L39 22.2L27 27ZM27 21C26.34 21 25.8 21.264 25.8 21.6C25.8 21.936 26.34 22.2 27 22.2C27.66 22.2 28.2 21.936 28.2 21.6C28.2 21.264 27.66 21 27 21ZM27 28.2L33.684 25.524C34.536 26.652 35.124 28.008 35.316 29.484C34.956 29.436 34.584 29.4 34.2 29.4C31.14 29.4 28.464 31.044 27 33.492C26.2569 32.2449 25.2027 31.2121 23.9406 30.4948C22.6785 29.7775 21.2517 29.4003 19.8 29.4C19.416 29.4 19.044 29.436 18.684 29.484C18.876 28.008 19.464 26.652 20.316 25.524L27 28.2Z" fill="#425FF8"/>
    </g>
    <rect x="1.5" y="1.5" width="51" height="51" rx="17.5" stroke="#425FF8" stroke-opacity="0.2" stroke-width="3"/>
    <defs>
        <clipPath id="clip0_62_743">
            <rect width="24" height="24" fill="white" transform="translate(15 15)"/>
        </clipPath>
    </defs>
</svg>
