<svg width="48" height="48" viewBox="0 0 48 48" fill="none" xmlns="http://www.w3.org/2000/svg">
    <rect width="48" height="48" rx="16" fill="#425FF8"/>
    <path fill-rule="evenodd" clip-rule="evenodd" d="M23.9999 33.6C29.3018 33.6 33.5999 29.302 33.5999 24C33.5999 18.6981 29.3018 14.4 23.9999 14.4C18.698 14.4 14.3999 18.6981 14.3999 24C14.3999 29.302 18.698 33.6 23.9999 33.6ZM23.4655 20.6016C23.0973 20.3561 22.6239 20.3332 22.2337 20.542C21.8435 20.7508 21.5999 21.1575 21.5999 21.6V26.4C21.5999 26.8426 21.8435 27.2492 22.2337 27.458C22.6239 27.6669 23.0973 27.644 23.4655 27.3985L27.0655 24.9985C27.3994 24.7759 27.5999 24.4012 27.5999 24C27.5999 23.5988 27.3994 23.2241 27.0655 23.0016L23.4655 20.6016Z" fill="white"/>
</svg>
