<svg width="48" height="48" viewBox="0 0 48 48" fill="none" xmlns="http://www.w3.org/2000/svg">
    <rect width="48" height="48" rx="16" fill="#FBA564"/>
    <path d="M14.3999 25.2C14.3999 24.5372 14.9372 24 15.5999 24H17.9999C18.6626 24 19.1999 24.5372 19.1999 25.2V31.2C19.1999 31.8627 18.6626 32.4 17.9999 32.4H15.5999C14.9372 32.4 14.3999 31.8627 14.3999 31.2V25.2Z" fill="white"/>
    <path d="M21.5999 20.4C21.5999 19.7372 22.1372 19.2 22.7999 19.2H25.1999C25.8626 19.2 26.3999 19.7372 26.3999 20.4V31.2C26.3999 31.8627 25.8626 32.4 25.1999 32.4H22.7999C22.1372 32.4 21.5999 31.8627 21.5999 31.2V20.4Z" fill="white"/>
    <path d="M28.7999 16.8C28.7999 16.1372 29.3372 15.6 29.9999 15.6H32.3999C33.0626 15.6 33.5999 16.1372 33.5999 16.8V31.2C33.5999 31.8627 33.0626 32.4 32.3999 32.4H29.9999C29.3372 32.4 28.7999 31.8627 28.7999 31.2V16.8Z" fill="white"/>
</svg>
