<svg width="54" height="54" viewBox="0 0 54 54" fill="none" xmlns="http://www.w3.org/2000/svg">
    <rect x="3" y="3" width="48" height="48" rx="16" fill="white"/>
    <path d="M16.5 31.5C16.5 31.1022 16.658 30.7206 16.9393 30.4393C17.2206 30.158 17.6022 30 18 30H21C21.3978 30 21.7794 30.158 22.0607 30.4393C22.342 30.7206 22.5 31.1022 22.5 31.5V36C22.5 36.3978 22.342 36.7794 22.0607 37.0607C21.7794 37.342 21.3978 37.5 21 37.5H18C17.6022 37.5 17.2206 37.342 16.9393 37.0607C16.658 36.7794 16.5 36.3978 16.5 36V31.5ZM24 25.5C24 25.1022 24.158 24.7206 24.4393 24.4393C24.7206 24.158 25.1022 24 25.5 24H28.5C28.8978 24 29.2794 24.158 29.5607 24.4393C29.842 24.7206 30 25.1022 30 25.5V36C30 36.3978 29.842 36.7794 29.5607 37.0607C29.2794 37.342 28.8978 37.5 28.5 37.5H25.5C25.1022 37.5 24.7206 37.342 24.4393 37.0607C24.158 36.7794 24 36.3978 24 36V25.5ZM31.5 18C31.5 17.6022 31.658 17.2206 31.9393 16.9393C32.2206 16.658 32.6022 16.5 33 16.5H36C36.3978 16.5 36.7794 16.658 37.0607 16.9393C37.342 17.2206 37.5 17.6022 37.5 18V36C37.5 36.3978 37.342 36.7794 37.0607 37.0607C36.7794 37.342 36.3978 37.5 36 37.5H33C32.6022 37.5 32.2206 37.342 31.9393 37.0607C31.658 36.7794 31.5 36.3978 31.5 36V18Z" fill="#52D7A6"/>
    <rect x="1.5" y="1.5" width="51" height="51" rx="17.5" stroke="#52D7A6" stroke-opacity="0.2" stroke-width="3"/>
</svg>
