<svg width="123" height="40" viewBox="0 0 123 40" fill="none" xmlns="http://www.w3.org/2000/svg">
<g clip-path="url(#clip0_62_1098)">
<path d="M32.6667 0H7.33333C3.28325 0 0 3.28325 0 7.33333V32.6667C0 36.7168 3.28325 40 7.33333 40H32.6667C36.7168 40 40 36.7168 40 32.6667V7.33333C40 3.28325 36.7168 0 32.6667 0Z" fill="white"/>
<path fill-rule="evenodd" clip-rule="evenodd" d="M19.0645 22.0604C19.0833 22.045 19.1021 22.0295 19.1206 22.0137L19.0645 22.0604Z" fill="#4310D3"/>
<path fill-rule="evenodd" clip-rule="evenodd" d="M17.9473 20.3836C17.9661 20.3683 17.9848 20.3527 18.0034 20.3369L17.9473 20.3836Z" fill="#EEEEEE"/>
<path d="M8.51328 21.1132C8.97086 25.683 13.0808 29.0132 17.693 28.5513C18.8983 28.4307 20.0184 28.063 21.0077 27.5042L19.4678 21.8506L19.4277 21.9137C18.9405 22.6607 18.1276 23.1895 17.1658 23.2858C15.4886 23.4538 13.9941 22.2428 13.8277 20.581C13.6613 18.9193 14.886 17.436 16.5632 17.2681C17.5305 17.1713 18.4371 17.5266 19.0632 18.169L19.4228 12.3494C18.3618 12.0143 17.2153 11.8845 16.036 12.0025C11.4237 12.4644 8.05571 16.5434 8.51328 21.1132Z" fill="#1F2937"/>
<path fill-rule="evenodd" clip-rule="evenodd" d="M19.4666 21.8509L21.0064 27.5045C22.1706 26.8468 23.1534 25.9243 23.8797 24.8278L30.4742 13.5115C30.9033 12.775 30.6668 11.8308 29.9412 11.3837C28.1809 10.2988 25.8722 10.8844 24.8416 12.677L23.4458 15.1049L23.5972 15.2998L20.6768 19.8954L19.4666 21.8509Z" fill="#1F2937"/>
<path fill-rule="evenodd" clip-rule="evenodd" d="M23.4468 15.1057L32.9452 25.9911C33.5191 26.6488 33.4687 27.6429 32.8311 28.2391C31.3345 29.6386 28.974 29.5122 27.6355 27.9607L20.6779 19.8962L19.063 18.17L19.4225 12.3504C21.096 12.879 22.5568 13.9182 23.5983 15.3005L23.4468 15.1057Z" fill="#1F2937"/>
</g>
<path d="M52.3578 15H50.2484L54.089 4.09091H56.5286L60.3745 15H58.2651L55.3514 6.32812H55.2662L52.3578 15ZM52.427 10.7227H58.1799V12.31H52.427V10.7227ZM63.6544 4.09091V15H61.7261V4.09091H63.6544ZM65.6373 18.0682V6.81818H67.5336V8.17116H67.6454C67.7449 7.9723 67.8851 7.76101 68.0662 7.53729C68.2473 7.31001 68.4924 7.11648 68.8013 6.95668C69.1103 6.79332 69.5044 6.71165 69.9838 6.71165C70.6159 6.71165 71.1859 6.87322 71.6937 7.19638C72.2051 7.51598 72.6099 7.99006 72.9082 8.61861C73.21 9.24361 73.361 10.0107 73.361 10.9197C73.361 11.8182 73.2136 12.5817 72.9189 13.2102C72.6241 13.8388 72.2228 14.3182 71.715 14.6484C71.2072 14.9787 70.6319 15.1438 69.9892 15.1438C69.5204 15.1438 69.1316 15.0657 68.8226 14.9094C68.5137 14.7532 68.2651 14.565 68.0769 14.3448C67.8922 14.1211 67.7484 13.9098 67.6454 13.7109H67.5655V18.0682H65.6373ZM67.5282 10.9091C67.5282 11.4382 67.6028 11.9016 67.752 12.2994C67.9047 12.6971 68.123 13.0078 68.4071 13.2315C68.6948 13.4517 69.0428 13.5618 69.4512 13.5618C69.8773 13.5618 70.2342 13.4482 70.5218 13.2209C70.8095 12.9901 71.0261 12.6758 71.1717 12.2781C71.3208 11.8768 71.3954 11.4205 71.3954 10.9091C71.3954 10.4013 71.3226 9.95028 71.177 9.55611C71.0314 9.16193 70.8148 8.85298 70.5272 8.62926C70.2395 8.40554 69.8809 8.29368 69.4512 8.29368C69.0392 8.29368 68.6895 8.40199 68.4018 8.61861C68.1142 8.83523 67.8958 9.13885 67.7466 9.52947C67.601 9.9201 67.5282 10.38 67.5282 10.9091ZM76.9405 10.206V15H75.0123V4.09091H76.8979V8.20845H76.9938C77.1855 7.7468 77.4821 7.38281 77.8833 7.11648C78.2882 6.84659 78.8031 6.71165 79.4281 6.71165C79.9963 6.71165 80.4917 6.83061 80.9142 7.06854C81.3368 7.30646 81.6635 7.65447 81.8944 8.11257C82.1287 8.57067 82.2459 9.12997 82.2459 9.79048V15H80.3176V10.0888C80.3176 9.53835 80.1756 9.11044 79.8915 8.80504C79.611 8.49609 79.2168 8.34162 78.709 8.34162C78.3681 8.34162 78.0627 8.41619 77.7928 8.56534C77.5265 8.71094 77.3169 8.92223 77.1642 9.19922C77.0151 9.47621 76.9405 9.81179 76.9405 10.206ZM86.5659 15.1651C86.0474 15.1651 85.5804 15.0728 85.165 14.8881C84.753 14.6999 84.4263 14.4229 84.1848 14.0572C83.9469 13.6914 83.8279 13.2404 83.8279 12.7042C83.8279 12.2425 83.9132 11.8608 84.0836 11.5589C84.2541 11.2571 84.4867 11.0156 84.7814 10.8345C85.0762 10.6534 85.4082 10.5167 85.7775 10.4244C86.1504 10.3285 86.5357 10.2592 86.9334 10.2166C87.4128 10.1669 87.8017 10.1225 88.1 10.0835C88.3983 10.0408 88.6149 9.97692 88.7498 9.89169C88.8883 9.80291 88.9576 9.66619 88.9576 9.48153V9.44957C88.9576 9.0483 88.8386 8.73757 88.6007 8.5174C88.3627 8.29723 88.0201 8.18714 87.5726 8.18714C87.1003 8.18714 86.7257 8.29013 86.4487 8.49609C86.1752 8.70206 85.9906 8.94531 85.8947 9.22585L84.0943 8.97017C84.2363 8.47301 84.4707 8.05753 84.7974 7.72372C85.1241 7.38636 85.5236 7.13423 85.9959 6.96733C86.4682 6.79688 86.9902 6.71165 87.562 6.71165C87.9561 6.71165 88.3485 6.75781 88.7392 6.85014C89.1298 6.94247 89.4867 7.09517 89.8098 7.30824C90.133 7.51776 90.3922 7.80362 90.5875 8.16584C90.7864 8.52805 90.8858 8.98082 90.8858 9.52415V15H89.0321V13.8761H88.9682C88.851 14.1033 88.6859 14.3164 88.4728 14.5153C88.2633 14.7106 87.9988 14.8686 87.6792 14.9893C87.3631 15.1065 86.992 15.1651 86.5659 15.1651ZM87.0666 13.7482C87.4537 13.7482 87.7892 13.6719 88.0733 13.5192C88.3574 13.3629 88.5758 13.157 88.7285 12.9013C88.8848 12.6456 88.9629 12.3668 88.9629 12.065V11.1009C88.9025 11.1506 88.7995 11.1967 88.6539 11.2393C88.5119 11.282 88.3521 11.3192 88.1745 11.3512C87.997 11.3832 87.8212 11.4116 87.6472 11.4364C87.4732 11.4613 87.3223 11.4826 87.1944 11.5004C86.9068 11.5394 86.6493 11.6033 86.4221 11.6921C86.1948 11.7809 86.0154 11.9052 85.8841 12.065C85.7527 12.2212 85.687 12.4237 85.687 12.6722C85.687 13.0273 85.8166 13.2955 86.0758 13.4766C86.335 13.6577 86.6653 13.7482 87.0666 13.7482ZM50.9569 35V24.0909H58.052V25.7475H52.9331V28.7092H57.6845V30.3658H52.9331V33.3434H58.0946V35H50.9569ZM63.0192 35.1438C62.3764 35.1438 61.8011 34.9787 61.2933 34.6484C60.7855 34.3182 60.3842 33.8388 60.0895 33.2102C59.7947 32.5817 59.6474 31.8182 59.6474 30.9197C59.6474 30.0107 59.7965 29.2436 60.0948 28.6186C60.3967 27.9901 60.8033 27.516 61.3146 27.1964C61.826 26.8732 62.396 26.7116 63.0245 26.7116C63.5039 26.7116 63.8981 26.7933 64.207 26.9567C64.516 27.1165 64.761 27.31 64.9421 27.5373C65.1232 27.761 65.2635 27.9723 65.3629 28.1712H65.4428V24.0909H67.3764V35H65.4801V33.7109H65.3629C65.2635 33.9098 65.1197 34.1211 64.9315 34.3448C64.7433 34.565 64.4947 34.7532 64.1857 34.9094C63.8768 35.0657 63.4879 35.1438 63.0192 35.1438ZM63.5572 33.5618C63.9656 33.5618 64.3136 33.4517 64.6012 33.2315C64.8888 33.0078 65.1072 32.6971 65.2564 32.2994C65.4055 31.9016 65.4801 31.4382 65.4801 30.9091C65.4801 30.38 65.4055 29.9201 65.2564 29.5295C65.1108 29.1388 64.8942 28.8352 64.6065 28.6186C64.3224 28.402 63.9727 28.2937 63.5572 28.2937C63.1275 28.2937 62.7688 28.4055 62.4812 28.6293C62.1935 28.853 61.9769 29.1619 61.8313 29.5561C61.6857 29.9503 61.6129 30.4013 61.6129 30.9091C61.6129 31.4205 61.6857 31.8768 61.8313 32.2781C61.9805 32.6758 62.1989 32.9901 62.4865 33.2209C62.7777 33.4482 63.1346 33.5618 63.5572 33.5618ZM74.646 31.5589V26.8182H76.5743V35H74.7046V33.5458H74.6194C74.4347 34.0039 74.1311 34.3786 73.7085 34.6697C73.2895 34.9609 72.7728 35.1065 72.1585 35.1065C71.6222 35.1065 71.1482 34.9876 70.7362 34.7496C70.3279 34.5082 70.0083 34.1584 69.7774 33.7003C69.5466 33.2386 69.4312 32.6811 69.4312 32.0277V26.8182H71.3595V31.7294C71.3595 32.2479 71.5015 32.6598 71.7856 32.9652C72.0697 33.2706 72.4426 33.4233 72.9042 33.4233C73.1883 33.4233 73.4635 33.354 73.7298 33.2156C73.9962 33.0771 74.2146 32.8711 74.385 32.5977C74.559 32.3207 74.646 31.9744 74.646 31.5589ZM82.1261 35.1598C81.3093 35.1598 80.608 34.9805 80.022 34.6218C79.4396 34.2631 78.9904 33.7678 78.6744 33.1357C78.3619 32.5 78.2056 31.7685 78.2056 30.9411C78.2056 30.1101 78.3654 29.3768 78.685 28.7411C79.0046 28.1019 79.4556 27.6048 80.038 27.2496C80.6239 26.891 81.3164 26.7116 82.1154 26.7116C82.7795 26.7116 83.3672 26.8342 83.8786 27.0792C84.3935 27.3207 84.8036 27.6634 85.109 28.1072C85.4144 28.5476 85.5884 29.0625 85.631 29.652H83.788C83.7134 29.2578 83.5359 28.9293 83.2553 28.6665C82.9783 28.4002 82.6072 28.267 82.142 28.267C81.7479 28.267 81.4016 28.3736 81.1033 28.5866C80.805 28.7962 80.5724 29.098 80.4055 29.4922C80.2422 29.8864 80.1605 30.3587 80.1605 30.9091C80.1605 31.4666 80.2422 31.946 80.4055 32.3473C80.5689 32.745 80.7979 33.0522 81.0927 33.2688C81.391 33.4819 81.7408 33.5884 82.142 33.5884C82.4261 33.5884 82.68 33.5352 82.9038 33.4286C83.131 33.3185 83.321 33.1605 83.4737 32.9545C83.6264 32.7486 83.7312 32.4982 83.788 32.2035H85.631C85.5849 32.7823 85.4144 33.2955 85.1197 33.7429C84.8249 34.1868 84.4237 34.5348 83.9158 34.7869C83.408 35.0355 82.8114 35.1598 82.1261 35.1598ZM89.5688 35.1651C89.0503 35.1651 88.5834 35.0728 88.1679 34.8881C87.7559 34.6999 87.4292 34.4229 87.1878 34.0572C86.9498 33.6914 86.8309 33.2404 86.8309 32.7042C86.8309 32.2425 86.9161 31.8608 87.0866 31.5589C87.257 31.2571 87.4896 31.0156 87.7844 30.8345C88.0791 30.6534 88.4111 30.5167 88.7805 30.4244C89.1533 30.3285 89.5386 30.2592 89.9363 30.2166C90.4157 30.1669 90.8046 30.1225 91.1029 30.0835C91.4012 30.0408 91.6178 29.9769 91.7528 29.8917C91.8912 29.8029 91.9605 29.6662 91.9605 29.4815V29.4496C91.9605 29.0483 91.8415 28.7376 91.6036 28.5174C91.3657 28.2972 91.023 28.1871 90.5756 28.1871C90.1032 28.1871 89.7286 28.2901 89.4516 28.4961C89.1782 28.7021 88.9935 28.9453 88.8976 29.2259L87.0972 28.9702C87.2393 28.473 87.4736 28.0575 87.8003 27.7237C88.127 27.3864 88.5265 27.1342 88.9988 26.9673C89.4711 26.7969 89.9932 26.7116 90.5649 26.7116C90.9591 26.7116 91.3515 26.7578 91.7421 26.8501C92.1327 26.9425 92.4896 27.0952 92.8128 27.3082C93.1359 27.5178 93.3952 27.8036 93.5905 28.1658C93.7893 28.5281 93.8888 28.9808 93.8888 29.5241V35H92.0351V33.8761H91.9711C91.854 34.1033 91.6888 34.3164 91.4758 34.5153C91.2662 34.7106 91.0017 34.8686 90.6821 34.9893C90.366 35.1065 89.9949 35.1651 89.5688 35.1651ZM90.0695 33.7482C90.4566 33.7482 90.7922 33.6719 91.0763 33.5192C91.3604 33.3629 91.5787 33.157 91.7314 32.9013C91.8877 32.6456 91.9658 32.3668 91.9658 32.065V31.1009C91.9055 31.1506 91.8025 31.1967 91.6569 31.2393C91.5148 31.282 91.355 31.3192 91.1775 31.3512C90.9999 31.3832 90.8241 31.4116 90.6501 31.4364C90.4761 31.4613 90.3252 31.4826 90.1974 31.5004C89.9097 31.5394 89.6523 31.6033 89.425 31.6921C89.1977 31.7809 89.0184 31.9052 88.887 32.065C88.7556 32.2212 88.6899 32.4237 88.6899 32.6722C88.6899 33.0273 88.8195 33.2955 89.0787 33.4766C89.338 33.6577 89.6682 33.7482 90.0695 33.7482ZM99.9133 26.8182V28.3097H95.2098V26.8182H99.9133ZM96.371 24.858H98.2993V32.5391C98.2993 32.7983 98.3383 32.9972 98.4165 33.1357C98.4981 33.2706 98.6047 33.3629 98.7361 33.4126C98.8675 33.4624 99.0131 33.4872 99.1729 33.4872C99.2936 33.4872 99.4037 33.4783 99.5031 33.4606C99.6061 33.4428 99.6842 33.4268 99.7375 33.4126L100.062 34.9201C99.9594 34.9556 99.8121 34.9947 99.6203 35.0373C99.4321 35.0799 99.2013 35.1048 98.9278 35.1119C98.4449 35.1261 98.0099 35.0533 97.6228 34.8935C97.2357 34.7301 96.9285 34.478 96.7013 34.1371C96.4775 33.7962 96.3675 33.37 96.371 32.8587V24.858ZM101.526 35V26.8182H103.454V35H101.526ZM102.495 25.657C102.19 25.657 101.927 25.5558 101.707 25.3533C101.487 25.1474 101.377 24.9006 101.377 24.6129C101.377 24.3217 101.487 24.0749 101.707 23.8725C101.927 23.6665 102.19 23.5636 102.495 23.5636C102.804 23.5636 103.067 23.6665 103.284 23.8725C103.504 24.0749 103.614 24.3217 103.614 24.6129C103.614 24.9006 103.504 25.1474 103.284 25.3533C103.067 25.5558 102.804 25.657 102.495 25.657ZM109.006 35.1598C108.207 35.1598 107.514 34.984 106.929 34.6325C106.343 34.2809 105.888 33.7891 105.565 33.157C105.245 32.5249 105.085 31.7862 105.085 30.9411C105.085 30.0959 105.245 29.3555 105.565 28.7198C105.888 28.0842 106.343 27.5906 106.929 27.239C107.514 26.8874 108.207 26.7116 109.006 26.7116C109.805 26.7116 110.497 26.8874 111.083 27.239C111.669 27.5906 112.122 28.0842 112.442 28.7198C112.765 29.3555 112.926 30.0959 112.926 30.9411C112.926 31.7862 112.765 32.5249 112.442 33.157C112.122 33.7891 111.669 34.2809 111.083 34.6325C110.497 34.984 109.805 35.1598 109.006 35.1598ZM109.017 33.6151C109.45 33.6151 109.812 33.4961 110.103 33.2582C110.394 33.0167 110.611 32.6935 110.753 32.2887C110.899 31.8839 110.972 31.4329 110.972 30.9357C110.972 30.435 110.899 29.9822 110.753 29.5774C110.611 29.169 110.394 28.8441 110.103 28.6026C109.812 28.3612 109.45 28.2404 109.017 28.2404C108.573 28.2404 108.203 28.3612 107.909 28.6026C107.617 28.8441 107.399 29.169 107.253 29.5774C107.111 29.9822 107.04 30.435 107.04 30.9357C107.04 31.4329 107.111 31.8839 107.253 32.2887C107.399 32.6935 107.617 33.0167 107.909 33.2582C108.203 33.4961 108.573 33.6151 109.017 33.6151ZM116.491 30.206V35H114.563V26.8182H116.406V28.2085H116.502C116.69 27.7504 116.99 27.3864 117.402 27.1165C117.818 26.8466 118.331 26.7116 118.942 26.7116C119.506 26.7116 119.998 26.8324 120.417 27.0739C120.84 27.3153 121.166 27.6651 121.397 28.1232C121.632 28.5813 121.747 29.1371 121.743 29.7905V35H119.815V30.0888C119.815 29.5419 119.673 29.114 119.389 28.805C119.108 28.4961 118.72 28.3416 118.222 28.3416C117.885 28.3416 117.585 28.4162 117.322 28.5653C117.063 28.7109 116.859 28.9222 116.71 29.1992C116.564 29.4762 116.491 29.8118 116.491 30.206Z" fill="white"/>
<defs>
<clipPath id="clip0_62_1098">
<rect width="40" height="40" fill="white"/>
</clipPath>
</defs>
</svg>
